{
  "accessors": [
    {
      "bufferView": 2,
      "componentType": 5126,
      "count": 10590,
      "max": [
        0.4093571901321411,
        1.0031494639406446e-05,
        0.5440738797187805
      ],
      "min": [
        -0.4797729253768921,
        -0.11000003665685654,
        -0.40924161672592163
      ],
      "type": "VEC3"
    },
    {
      "bufferView": 2,
      "byteOffset": 127080,
      "componentType": 5126,
      "count": 10590,
      "max": [
        0.9999948143959045,
        1.0,
        0.9999852180480957
      ],
      "min": [
        -0.9997221231460571,
        -1.0,
        -0.9999994039535522
      ],
      "type": "VEC3"
    },
    {
      "bufferView": 1,
      "componentType": 5126,
      "count": 10590,
      "max": [
        0.6872142553329468,
        0.9788373708724976
      ],
      "min": [
        0.09416455030441284,
        0.025521814823150635
      ],
      "type": "VEC2"
    },
    {
      "bufferView": 0,
      "componentType": 5125,
      "count": 16932,
      "type": "SCALAR"
    }
  ],
  "asset": {
    "extras": {
      "author": "Sherbaz (https://sketchfab.com/sherlabs)",
      "license": "CC-BY-4.0 (http://creativecommons.org/licenses/by/4.0/)",
      "source": "https://sketchfab.com/3d-models/indian-map-flag-5f5fa02e9e02420881536168a660c47b",
      "title": "Indian Map Flag"
    },
    "generator": "Sketchfab-15.36.0",
    "version": "2.0"
  },
  "bufferViews": [
    {
      "buffer": 0,
      "byteLength": 67728,
      "name": "floatBufferViews",
      "target": 34963
    },
    {
      "buffer": 0,
      "byteLength": 84720,
      "byteOffset": 67728,
      "byteStride": 8,
      "name": "floatBufferViews",
      "target": 34962
    },
    {
      "buffer": 0,
      "byteLength": 254160,
      "byteOffset": 152448,
      "byteStride": 12,
      "name": "floatBufferViews",
      "target": 34962
    }
  ],
  "buffers": [
    {
      "byteLength": 406608,
      "uri": "scene.bin"
    }
  ],
  "images": [
    {
      "uri": "textures/indianflag_baseColor.png"
    }
  ],
  "materials": [
    {
      "doubleSided": true,
      "name": "indianflag",
      "pbrMetallicRoughness": {
        "baseColorTexture": {
          "index": 0
        },
        "metallicFactor": 0.0,
        "roughnessFactor": 0.5
      }
    }
  ],
  "meshes": [
    {
      "name": "Object_0",
      "primitives": [
        {
          "attributes": {
            "NORMAL": 1,
            "POSITION": 0,
            "TEXCOORD_0": 2
          },
          "indices": 3,
          "material": 0,
          "mode": 4
        }
      ]
    }
  ],
  "nodes": [
    {
      "children": [
        1
      ],
      "matrix": [
        1.0,
        0.0,
        0.0,
        0.0,
        0.0,
        2.220446049250313e-16,
        -1.0,
        0.0,
        0.0,
        1.0,
        2.220446049250313e-16,
        0.0,
        0.0,
        0.0,
        0.0,
        1.0
      ],
      "name": "Sketchfab_model"
    },
    {
      "children": [
        2
      ],
      "name": "root"
    },
    {
      "children": [
        3
      ],
      "matrix": [
        1.0,
        0.0,
        0.0,
        0.0,
        0.0,
        2.220446049250313e-16,
        1.0,
        0.0,
        0.0,
        -1.0,
        2.220446049250313e-16,
        0.0,
        0.0,
        0.0,
        0.0,
        1.0
      ],
      "name": "GLTF_SceneRootNode"
    },
    {
      "children": [
        4
      ],
      "matrix": [
        -4.3425783724867655,
        -1.2771706344136742,
        0.6955175759842472,
        0.0,
        -3.009314726800096e-06,
        -2.19023043034368,
        -4.021912821485015,
        0.0,
        1.4542728519444257,
        -3.8137411137521733,
        2.0768643765241843,
        0.0,
        0.4203767776489258,
        2.825807809829712,
        0.33341774344444275,
        1.0
      ],
      "name": "indianflag_0"
    },
    {
      "mesh": 0,
      "name": "Object_4"
    }
  ],
  "samplers": [
    {
      "magFilter": 9729,
      "minFilter": 9987,
      "wrapS": 33071,
      "wrapT": 33071
    }
  ],
  "scene": 0,
  "scenes": [
    {
      "name": "Sketchfab_Scene",
      "nodes": [
        0
      ]
    }
  ],
  "textures": [
    {
      "sampler": 0,
      "source": 0
    }
  ]
}
